<?xml version="1.0" standalone="no"?>
<!DOCTYPE svg PUBLIC "-//W3C//DTD SVG 20010904//EN"
 "http://www.w3.org/TR/2001/REC-SVG-20010904/DTD/svg10.dtd">
<svg version="1.0" xmlns="http://www.w3.org/2000/svg"
 width="1024.000000pt" height="1024.000000pt" viewBox="0 0 1024.000000 1024.000000"
 preserveAspectRatio="xMidYMid meet">

<g transform="translate(0.000000,1024.000000) scale(0.100000,-0.100000)"
fill="#000000" stroke="none">
<path d="M0 5120 l0 -5120 5120 0 5120 0 0 5120 0 5120 -5120 0 -5120 0 0
-5120z m5470 3305 c297 -26 632 -123 935 -270 164 -79 434 -253 530 -342 11
-10 51 -45 88 -77 37 -33 64 -63 60 -67 -4 -4 -133 -49 -285 -101 l-277 -94
-43 33 c-24 18 -90 62 -148 97 -444 271 -996 367 -1498 261 -468 -99 -855
-333 -1185 -718 -252 -293 -409 -628 -482 -1032 -33 -177 -30 -547 5 -707 l8
-38 -101 -31 c-130 -40 -137 -42 -104 -26 15 7 25 16 21 19 -3 4 5 4 18 1 18
-4 20 -3 8 6 -8 6 -23 11 -32 11 -10 0 -18 5 -18 11 0 6 -7 9 -15 6 -8 -4 -17
-2 -20 4 -4 5 -10 7 -15 4 -5 -3 -19 5 -31 17 -12 13 -19 18 -15 11 5 -9 -9
-11 -56 -8 -85 6 -101 -7 -94 -72 4 -40 3 -37 -9 17 -44 207 -57 531 -30 765
73 626 302 1100 758 1571 251 260 546 455 893 589 131 51 364 114 518 140 85
14 438 34 516 29 14 -1 59 -5 100 -9z m1893 -182 c3 -10 10 -39 17 -64 6 -25
23 -59 37 -74 29 -31 96 -64 130 -65 45 0 31 -19 -23 -30 -79 -17 -129 -64
-151 -142 -17 -59 -33 -77 -33 -35 -1 34 -34 101 -66 131 -16 15 -56 35 -89
45 l-60 18 58 17 c91 27 157 108 157 195 0 25 17 28 23 4z m1976 3 c-2 -2 -69
-40 -149 -86 -80 -45 -253 -146 -385 -223 -132 -77 -305 -178 -385 -225 -80
-47 -206 -122 -280 -167 -74 -45 -217 -131 -317 -191 -100 -60 -179 -111 -175
-115 4 -3 45 -16 92 -28 185 -49 649 -186 658 -196 5 -5 -88 -38 -313 -110
-521 -167 -820 -263 -1070 -345 -265 -87 -361 -113 -340 -92 13 13 222 149
530 344 138 88 251 162 253 167 1 4 -33 15 -75 25 -43 10 -220 58 -393 106
-173 48 -366 100 -427 116 -62 16 -113 31 -113 35 0 3 26 13 58 23 63 19 403
136 1437 492 1215 418 1409 483 1394 470z m-6124 -186 c13 -12 48 -30 77 -40
l53 -17 -43 -12 c-59 -16 -107 -62 -123 -116 -7 -25 -16 -45 -20 -45 -4 0 -12
20 -18 44 -14 55 -66 103 -121 112 -39 6 -56 24 -24 24 29 0 113 42 127 64 8
11 20 39 27 61 l14 40 13 -46 c7 -25 24 -56 38 -69z m1710 -597 c107 -33 167
-84 211 -178 21 -45 24 -64 24 -189 l0 -138 -32 32 c-83 81 -189 114 -342 108
-86 -4 -113 -9 -177 -36 -145 -62 -266 -191 -309 -329 -39 -126 -22 -294 40
-395 11 -18 20 -36 20 -40 0 -15 -86 -7 -126 11 -117 53 -203 192 -220 355
-20 202 119 431 325 535 46 22 92 41 103 41 10 0 16 5 13 10 -4 6 -26 8 -56 4
-67 -9 -64 5 14 81 89 88 165 121 337 149 38 6 119 -4 175 -21z m930 2 c84
-22 171 -72 240 -137 68 -66 66 -77 -20 -79 l-50 -1 42 -13 c110 -35 228 -114
295 -198 144 -181 156 -443 28 -613 -49 -65 -112 -110 -176 -124 -75 -17 -78
-11 -39 73 85 185 65 357 -61 517 -102 130 -254 210 -398 210 -131 -1 -269
-48 -338 -116 l-38 -36 0 139 c0 136 1 141 31 201 42 84 118 144 224 178 56
18 189 17 260 -1z m-3276 -362 c14 -27 61 -53 96 -53 40 0 29 -18 -15 -25 -50
-8 -97 -53 -106 -100 -8 -46 -18 -44 -33 4 -14 49 -60 89 -112 97 -37 6 -46
24 -12 24 34 0 101 41 112 68 6 15 16 41 22 57 l11 30 12 -40 c7 -22 18 -50
25 -62z m2384 -188 c80 -40 161 -126 181 -195 16 -55 21 -131 9 -143 -3 -4
-14 0 -23 8 -24 22 -97 45 -142 45 -31 0 -46 6 -67 29 -59 63 -152 47 -190
-31 -26 -55 -20 -97 20 -138 41 -40 80 -46 133 -20 38 18 51 20 83 11 58 -16
114 -62 153 -127 l35 -58 3 -156 c3 -155 3 -155 -16 -125 -22 35 -108 103
-168 133 -23 12 -97 35 -165 52 -144 37 -223 75 -280 137 -181 196 -100 502
156 592 86 31 198 25 278 -14z m888 2 c84 -41 143 -98 181 -175 30 -61 33 -74
33 -162 0 -85 -3 -101 -29 -153 -36 -71 -119 -150 -189 -182 -29 -13 -97 -33
-150 -44 -53 -12 -119 -30 -147 -40 -60 -23 -139 -80 -180 -129 l-30 -37 0
116 c0 177 33 265 124 331 60 43 97 50 146 26 36 -18 46 -19 80 -9 100 30 118
166 28 221 -50 30 -88 26 -135 -15 -23 -19 -52 -35 -65 -35 -46 0 -100 -22
-139 -57 l-39 -35 0 59 c0 157 89 277 246 332 85 30 189 26 265 -12z m-1889
-529 c35 -68 124 -164 173 -188 17 -8 31 -15 33 -16 2 -1 -7 -22 -20 -46 -20
-37 -23 -58 -23 -143 0 -93 2 -104 31 -157 l32 -57 -57 -17 c-76 -22 -135 -58
-175 -108 -95 -116 -113 -248 -54 -378 34 -73 76 -119 145 -156 60 -31 170
-57 202 -47 17 5 19 -3 23 -88 3 -81 8 -103 36 -159 37 -76 92 -130 169 -165
47 -22 65 -25 141 -21 101 4 161 28 219 87 133 135 100 351 -54 351 -80 0
-130 -74 -103 -154 6 -19 23 -44 38 -55 l27 -19 -20 -22 c-67 -75 -194 -63
-254 23 -43 62 -54 118 -42 196 20 125 90 218 205 272 256 120 497 -30 530
-327 17 -162 -31 -316 -136 -438 -55 -64 -173 -141 -257 -167 -151 -47 -336
-32 -475 38 -133 67 -263 228 -284 352 l-7 44 -63 13 c-160 33 -290 153 -359
331 -32 83 -43 255 -23 356 24 125 121 291 201 345 34 24 39 31 34 57 -3 17
-8 68 -11 115 -8 101 5 172 46 258 27 58 86 152 95 152 2 0 19 -28 37 -62z
m2669 -21 c74 -113 100 -245 79 -388 -10 -69 -9 -84 2 -87 33 -10 131 -131
169 -207 57 -118 72 -187 67 -319 -5 -126 -25 -195 -85 -298 -76 -130 -182
-212 -308 -238 -52 -11 -54 -12 -60 -50 -13 -77 -72 -180 -143 -249 -119 -117
-254 -171 -427 -171 -215 0 -390 94 -505 271 -70 107 -102 284 -74 416 28 137
83 218 181 271 186 98 415 29 516 -157 53 -96 52 -234 -2 -310 -53 -74 -154
-92 -234 -41 -26 16 -47 33 -47 37 0 5 13 16 29 25 38 21 57 84 41 132 -34
105 -159 110 -218 10 -19 -33 -22 -50 -19 -105 10 -163 135 -269 316 -269 132
0 228 62 290 186 28 57 35 82 39 156 l5 88 31 0 c48 0 171 35 210 60 116 71
180 233 150 375 -28 129 -159 251 -285 263 -52 5 -59 12 -33 33 41 34 59 91
59 189 0 84 -3 101 -27 148 l-27 52 42 21 c58 30 147 124 177 186 28 61 33 59
91 -30z m1694 -184 c19 -151 88 -243 210 -280 39 -12 83 -24 98 -28 39 -8 26
-21 -30 -29 -66 -8 -163 -56 -197 -97 -39 -46 -64 -108 -78 -191 -17 -96 -23
-93 -49 22 -35 161 -123 243 -286 265 -29 4 -53 11 -53 15 0 4 33 15 73 24
106 24 170 57 206 107 30 41 65 138 76 212 9 54 22 45 30 -20z m-3833 -16 c67
-50 156 -85 264 -103 54 -9 122 -27 151 -41 74 -34 163 -133 213 -236 39 -81
40 -86 40 -190 l0 -107 -114 0 -113 0 -6 59 c-7 81 -37 142 -99 205 -87 87
-208 120 -352 98 -62 -10 -75 -9 -113 8 -70 31 -105 107 -83 185 16 56 83 118
167 154 2 1 22 -14 45 -32z m1687 -56 c53 -67 60 -124 25 -193 -29 -56 -54
-63 -214 -63 -142 0 -146 -1 -210 -31 -118 -57 -188 -152 -198 -271 l-5 -63
-118 0 -119 0 0 104 c0 119 15 168 87 278 77 118 144 159 305 188 127 22 200
49 269 99 l54 39 46 -24 c26 -13 61 -41 78 -63z m1453 -356 c-6 -88 -21 -213
-32 -278 -49 -282 -182 -614 -328 -822 -213 -302 -512 -590 -776 -745 -459
-271 -958 -383 -1487 -335 -197 17 -417 71 -619 152 -130 51 -314 142 -305
151 3 3 11 0 17 -6 17 -17 21 -15 52 13 32 29 42 91 17 104 -17 10 -24 80 -8
99 8 10 13 10 26 0 14 -12 14 -11 2 5 -10 13 -17 14 -26 7 -10 -8 -15 -8 -21
1 -4 8 -3 9 4 5 7 -4 12 -3 12 3 0 5 -9 12 -19 16 -11 3 -24 12 -31 19 -6 8
43 -14 109 -47 65 -34 117 -65 115 -69 -3 -4 3 -5 12 -1 12 4 15 3 10 -5 -5
-8 -1 -10 10 -5 10 3 15 2 12 -3 -4 -5 4 -10 15 -10 12 -1 67 -18 122 -38 226
-84 497 -136 709 -136 612 0 1174 238 1597 677 204 211 368 476 448 722 72
223 99 384 108 641 l6 185 31 2 c17 1 47 5 66 9 19 4 47 7 63 8 15 1 27 4 27
8 0 4 11 3 25 -2 23 -9 25 -7 26 18 1 15 6 -20 12 -78 7 -72 6 -155 -1 -265z
m-5397 303 c19 -116 74 -176 186 -205 38 -9 69 -21 69 -25 0 -3 -24 -12 -54
-18 -82 -17 -143 -60 -171 -123 -13 -28 -27 -69 -30 -89 -8 -43 -35 -53 -35
-13 0 43 -39 130 -72 162 -42 39 -64 50 -128 64 -61 13 -56 23 19 38 105 22
160 81 182 194 7 32 15 57 20 57 4 0 10 -19 14 -42z m3805 -360 c63 -19 113
-50 170 -104 49 -46 62 -54 95 -54 39 0 75 22 75 47 0 20 15 16 45 -14 52 -52
68 -130 45 -215 -44 -157 -251 -174 -380 -31 -94 103 -179 149 -300 162 l-55
6 3 45 c11 133 147 204 302 158z m-1409 1 c45 -14 104 -61 123 -97 20 -40 27
-102 13 -106 -7 -2 -42 -8 -79 -14 -103 -16 -166 -50 -267 -145 -100 -95 -134
-111 -222 -105 -68 5 -122 40 -152 101 -43 85 -34 159 25 223 42 46 58 54 58
30 0 -21 40 -46 74 -46 22 0 40 12 75 49 25 26 60 57 76 69 68 46 196 65 276
41z m-1181 -482 l0 -54 -153 -91 c-84 -50 -217 -124 -296 -165 -79 -41 -139
-77 -134 -80 5 -3 85 -28 179 -56 93 -27 279 -86 414 -129 347 -113 505 -162
526 -162 29 0 4 -16 -51 -33 -27 -8 -169 -53 -315 -100 -146 -47 -409 -129
-585 -182 -800 -241 -1553 -482 -1940 -621 -42 -15 2 15 105 72 100 55 204
115 580 338 194 114 927 554 984 590 l40 24 -120 37 c-65 20 -230 72 -365 116
-136 43 -252 79 -258 79 -6 0 -11 4 -11 9 0 5 66 30 148 56 134 43 990 324
1157 380 97 33 95 33 95 -28z m4520 -340 c0 -26 34 -86 53 -92 6 -2 32 -9 57
-16 l45 -12 -48 -13 c-60 -15 -82 -34 -103 -91 l-17 -44 -17 39 c-21 47 -60
79 -106 88 -44 8 -39 24 10 38 45 13 84 49 92 85 10 45 14 52 24 46 5 -3 10
-16 10 -28z m-4847 -1072 c31 -61 69 -84 197 -123 18 -5 3 -11 -82 -36 -42
-12 -65 -26 -86 -52 -29 -35 -52 -93 -52 -133 0 -33 -18 -25 -25 12 -13 58
-46 124 -73 144 -26 19 -66 34 -125 47 -38 9 -27 21 30 36 72 18 109 45 137
102 14 29 26 58 26 64 0 7 5 25 12 41 11 28 11 27 18 -22 4 -28 14 -64 23 -80z
m4160 -48 c11 -44 54 -84 102 -93 19 -3 35 -9 35 -13 0 -3 -21 -13 -47 -21
-52 -16 -93 -64 -93 -106 0 -40 -19 -36 -30 7 -15 56 -56 95 -108 104 -50 8
-47 20 6 29 50 8 90 48 98 98 8 47 25 45 37 -5z m745 -670 l2 -309 31 26 c38
32 117 56 185 56 134 0 250 -92 297 -235 14 -42 17 -100 17 -349 1 -236 -2
-301 -12 -307 -18 -12 -130 -11 -148 1 -13 8 -16 56 -20 302 -5 283 -6 294
-28 329 -41 67 -142 90 -220 50 -94 -48 -101 -75 -102 -401 0 -193 -3 -269
-12 -278 -16 -16 -140 -16 -156 0 -9 9 -12 181 -12 713 0 386 3 705 7 709 4 4
43 5 88 4 l80 -3 3 -308z m-3206 -89 c1 -40 2 -90 3 -111 l0 -37 128 0 128 0
-6 -82 c-4 -46 -8 -89 -10 -95 -3 -10 -36 -13 -119 -13 l-114 0 -7 -173 c-4
-96 -4 -192 0 -215 14 -85 82 -132 190 -132 l65 0 0 -84 c0 -97 1 -96 -95 -96
-95 0 -167 31 -236 100 -87 86 -99 135 -99 396 l0 204 -65 0 -65 0 0 70 c0 39
-4 70 -8 70 -5 0 -35 -33 -68 -74 -48 -61 -63 -73 -79 -68 -75 26 -170 -17
-215 -98 -25 -44 -25 -48 -28 -315 -2 -194 -7 -272 -15 -277 -20 -12 -142 -9
-155 4 -9 9 -12 122 -12 445 l0 433 90 0 90 0 0 -51 0 -51 37 32 c84 74 218
101 308 61 43 -19 50 -20 57 -6 7 11 25 15 68 15 l60 0 0 110 0 110 85 0 85 0
2 -72z m-3339 -162 c68 -24 137 -68 137 -87 0 -6 -23 -37 -52 -69 l-51 -58
-56 31 c-99 56 -211 40 -248 -34 -17 -34 -6 -67 27 -84 15 -8 73 -26 130 -40
58 -15 122 -35 145 -45 113 -52 162 -178 116 -300 -41 -107 -106 -160 -232
-186 -91 -19 -176 -8 -262 36 -55 27 -147 96 -147 109 0 3 29 32 64 63 l64 57
28 -24 c44 -38 90 -57 154 -62 98 -9 175 33 168 93 -4 38 -43 59 -179 95 -62
16 -132 41 -156 54 -182 107 -132 387 80 454 88 28 185 27 270 -3z m698 17
c21 -4 51 -24 79 -52 l45 -46 33 36 c22 25 50 42 88 54 169 53 342 -62 383
-253 16 -75 15 -604 -1 -620 -15 -15 -122 -16 -149 -2 -18 10 -19 24 -19 283
0 167 -4 287 -11 312 -6 21 -26 54 -44 72 -58 58 -140 40 -181 -40 -14 -25
-17 -82 -21 -326 -4 -203 -9 -298 -17 -303 -18 -12 -131 -9 -144 4 -9 9 -12
86 -12 283 0 300 -8 356 -57 394 -35 28 -91 27 -134 -2 -61 -40 -68 -82 -69
-392 0 -197 -3 -274 -12 -283 -7 -7 -40 -12 -78 -12 -38 0 -71 5 -78 12 -9 9
-12 122 -12 445 l0 433 80 0 80 0 0 -42 0 -43 23 27 c44 54 138 79 228 61z
m1309 -27 c30 -13 70 -39 88 -56 l32 -32 0 56 0 56 83 0 84 0 6 -107 c11 -174
8 -742 -3 -764 -9 -16 -22 -19 -78 -19 -40 0 -73 5 -80 12 -7 7 -12 32 -12 56
l0 44 -42 -36 c-67 -58 -136 -79 -243 -74 -117 6 -184 37 -271 124 -74 73
-110 139 -130 236 -48 230 100 471 323 528 63 16 181 4 243 -24z m2310 -3 c36
-17 84 -48 108 -70 l43 -38 -64 -63 -64 -64 -47 36 c-158 120 -377 8 -394
-201 -15 -196 184 -336 355 -249 27 13 55 32 62 40 8 9 17 16 21 16 5 0 36
-28 69 -62 l61 -63 -50 -47 c-75 -70 -140 -92 -275 -93 -99 0 -116 3 -168 27
-77 36 -184 143 -220 220 -80 169 -43 383 87 514 99 98 190 135 326 131 72 -3
96 -8 150 -34z m781 8 c26 -12 65 -38 88 -57 l41 -36 0 57 0 56 83 -3 82 -3 3
-429 c2 -328 -1 -432 -10 -444 -10 -11 -28 -13 -81 -9 -78 5 -87 13 -87 71 l0
40 -27 -26 c-105 -96 -280 -117 -415 -50 -109 54 -200 157 -239 271 -23 65
-27 186 -9 252 41 151 155 273 299 321 77 25 208 20 272 -11z m1019 -8 c36
-17 83 -47 105 -66 l40 -36 -64 -65 -64 -65 -30 25 c-71 60 -149 74 -232 43
-99 -37 -165 -140 -165 -257 1 -119 87 -228 204 -256 61 -15 135 11 221 78 7
5 33 -14 73 -55 l62 -64 -45 -42 c-25 -23 -71 -55 -103 -70 -52 -26 -66 -28
-167 -28 -102 1 -115 3 -176 32 -127 59 -227 193 -252 336 -32 187 63 391 222
476 78 41 120 51 221 48 72 -3 96 -8 150 -34z m1672 0 c122 -58 196 -151 233
-293 18 -70 15 -160 -6 -186 -11 -13 -57 -15 -326 -12 -172 2 -313 2 -313 0 0
-18 38 -84 63 -110 94 -99 235 -106 365 -18 l50 33 57 -57 c49 -50 56 -60 46
-78 -18 -34 -109 -93 -183 -119 -61 -21 -85 -24 -162 -21 -125 6 -185 31 -276
115 -100 92 -146 188 -153 313 -7 127 36 242 125 336 90 95 188 135 323 131
78 -2 99 -6 157 -34z"/>
<path d="M4170 3880 c0 -6 4 -9 9 -6 5 4 12 1 14 -4 3 -6 4 -5 3 2 -3 15 -26
23 -26 8z"/>
<path d="M4138 3853 c7 -3 16 -2 19 1 4 3 -2 6 -13 5 -11 0 -14 -3 -6 -6z"/>
<path d="M4180 3840 c0 -5 9 -14 20 -20 11 -6 20 -9 20 -8 0 2 -9 11 -20 21
-11 9 -20 13 -20 7z"/>
<path d="M3297 2669 c-55 -13 -90 -33 -127 -75 -76 -88 -94 -200 -45 -299 79
-162 263 -198 396 -78 62 56 84 105 83 188 -1 109 -53 194 -147 239 -62 29
-108 36 -160 25z"/>
<path d="M6387 2668 c-85 -18 -151 -79 -186 -172 -25 -66 -26 -105 -7 -169 58
-192 301 -239 443 -84 90 98 82 248 -19 349 -20 20 -51 44 -68 53 -43 22 -117
33 -163 23z"/>
<path d="M9031 2671 c-50 -13 -113 -61 -138 -106 -44 -78 -52 -75 207 -75 154
0 230 3 230 10 0 19 -31 74 -59 103 -55 60 -157 88 -240 68z"/>
</g>
</svg>
